<!DOCTYPE svg PUBLIC "-//W3C//DTD SVG 1.1//EN" "http://www.w3.org/Graphics/SVG/1.1/DTD/svg11.dtd">
<!-- Uploaded to: SVG Repo, www.svgrepo.com, Transformed by: SVG Repo Mixer Tools -->
<svg width="800px" height="800px" viewBox="-2.4 -2.4 28.80 28.80" fill="none" xmlns="http://www.w3.org/2000/svg">
<g id="SVGRepo_bgCarrier" stroke-width="0" transform="translate(2.040000000000001,2.040000000000001), scale(0.83)">
<path transform="translate(-2.4, -2.4), scale(0.8999999999999999)" d="M16,28.003060294049128C19.919604722819066,27.772305435256605,23.929988533525364,27.328602143873177,26.624859251363308,24.47304251358326C29.60244504218179,21.317910163929135,31.6446512600083,16.871704090552743,30.437440699942858,12.704748373343286C29.281033689521756,8.713152405831117,24.948895559169785,6.977417088166674,21.10126237782859,5.407119522909467C17.646027738755564,3.99696780485056,13.915297530552182,3.0762351380533,10.493250978002873,4.565117830269173C6.9150258269792015,6.121951559559566,4.567456124213209,9.402696388390684,3.3767071100579287,13.118815772555143C2.016707869036031,17.363135509066268,0.7986411520193832,22.424703514212986,3.6813817062003054,25.823770277105215C6.519049357631648,29.16969115233823,11.620380795277644,28.260897112457663,16,28.003060294049128" fill="#033144" strokewidth="0"/>
</g>
<g id="SVGRepo_tracerCarrier" stroke-linecap="round" stroke-linejoin="round"/>
<g id="SVGRepo_iconCarrier"> <path d="M13 15H16" stroke="#91dbee" stroke-width="2" stroke-linecap="round"/> <path d="M8 15L10.5 12.5V12.5C10.7761 12.2239 10.7761 11.7761 10.5 11.5V11.5L8 9" stroke="#91dbee" stroke-width="2" stroke-linecap="round" stroke-linejoin="round"/> <path d="M3 8C3 6.11438 3 5.17157 3.58579 4.58579C4.17157 4 5.11438 4 7 4H12H17C18.8856 4 19.8284 4 20.4142 4.58579C21 5.17157 21 6.11438 21 8V12V16C21 17.8856 21 18.8284 20.4142 19.4142C19.8284 20 18.8856 20 17 20H12H7C5.11438 20 4.17157 20 3.58579 19.4142C3 18.8284 3 17.8856 3 16V12V8Z" stroke="#91dbee" stroke-width="2" stroke-linejoin="round"/> </g>
</svg>